<?xml version="1.0" encoding="UTF-8" standalone="no"?>
<!DOCTYPE svg PUBLIC "-//W3C//DTD SVG 1.1//EN" "http://www.w3.org/Graphics/SVG/1.1/DTD/svg11.dtd">
<svg version="1.1" xmlns="http://www.w3.org/2000/svg" xmlns:xlink="http://www.w3.org/1999/xlink" preserveAspectRatio="xMidYMid meet" viewBox="0 0 300 300" width="300" height="300"><defs><path d="M231.69 127.41L271.69 127.41L271.69 167.41L231.69 167.41L231.69 127.41Z" id="ap8H5G2q4"></path><path d="M231.69 177.41L271.69 177.41L271.69 217.41L231.69 217.41L231.69 177.41Z" id="cXXlMlUWm"></path><path d="M231.69 227.41L271.69 227.41L271.69 267.41L231.69 267.41L231.69 227.41Z" id="e8ytc4LQG"></path><path d="M181.69 227.41L221.69 227.41L221.69 267.41L181.69 267.41L181.69 227.41Z" id="e8f3ExcKZ0"></path><path d="M71.06 177.41L31.06 177.41L31.06 217.41L71.06 217.41L71.06 177.41Z" id="f6zwNKkPZy"></path><path d="M71.06 227.41L31.06 227.41L31.06 267.41L71.06 267.41L71.06 227.41Z" id="b3EzXEOOS"></path><path d="M121.06 227.41L81.06 227.41L81.06 267.41L121.06 267.41L121.06 227.41Z" id="a2aZ7U4YEX"></path><path d="M135.49 120.53L175.49 120.53L175.49 80.53L135.49 80.53L135.49 120.53Z" id="a2frGdaakk"></path><path d="M135.49 70.53L175.49 70.53L175.49 30.53L135.49 30.53L135.49 70.53Z" id="f1bhJUYmoO"></path><path d="M85.49 70.53L125.49 70.53L125.49 30.53L85.49 30.53L85.49 70.53Z" id="f1lonG1fQ9"></path><path d="M185.49 70.53L225.49 70.53L225.49 30.53L185.49 30.53L185.49 70.53Z" id="a3p6R5dtFD"></path></defs><g><g><g><use xlink:href="#ap8H5G2q4" opacity="1" fill="#000000" fill-opacity="0.72"></use></g><g><use xlink:href="#cXXlMlUWm" opacity="1" fill="#000000" fill-opacity="0.72"></use></g><g><use xlink:href="#e8ytc4LQG" opacity="1" fill="#000000" fill-opacity="0.72"></use></g><g><use xlink:href="#e8f3ExcKZ0" opacity="1" fill="#000000" fill-opacity="0.72"></use></g><g><use xlink:href="#f6zwNKkPZy" opacity="1" fill="#000000" fill-opacity="0.72"></use></g><g><use xlink:href="#b3EzXEOOS" opacity="1" fill="#000000" fill-opacity="0.72"></use></g><g><use xlink:href="#a2aZ7U4YEX" opacity="1" fill="#000000" fill-opacity="0.72"></use></g><g><use xlink:href="#a2frGdaakk" opacity="1" fill="#000000" fill-opacity="0.72"></use></g><g><use xlink:href="#f1bhJUYmoO" opacity="1" fill="#000000" fill-opacity="0.72"></use></g><g><use xlink:href="#f1lonG1fQ9" opacity="1" fill="#000000" fill-opacity="0.72"></use></g><g><use xlink:href="#a3p6R5dtFD" opacity="1" fill="#000000" fill-opacity="0.72"></use></g></g></g></svg>